<?xml version="1.0" encoding="UTF-8"?>
<svg xmlns="http://www.w3.org/2000/svg" xmlns:xlink="http://www.w3.org/1999/xlink" width="48pt" height="48pt" viewBox="0 0 48 48" version="1.1">
<g id="surface1">
<path style=" stroke:none;fill-rule:nonzero;fill:#FFFFFF;fill-opacity:1;" d="M 17 8 C 14.539063 8 12.546875 9.789063 12.125 12.125 C 11.03125 12.382813 10.007813 13.078125 9.375 14.1875 L 2.8125 28 L 2.875 28 C 2.328125 29.226563 2 30.578125 2 32 C 2 37.5 6.5 42 12 42 C 16.3125 42 19.976563 39.21875 21.375 35.375 C 22.171875 35.765625 23.0625 36 24 36 C 24.9375 36 25.828125 35.765625 26.625 35.375 C 28.023438 39.21875 31.6875 42 36 42 C 41.5 42 46 37.5 46 32 C 46 30.578125 45.671875 29.226563 45.125 28 L 45.1875 28 L 38.625 14.1875 C 37.992188 13.078125 36.96875 12.382813 35.875 12.125 C 35.453125 9.789063 33.460938 8 31 8 C 28.585938 8 26.59375 9.71875 26.125 12 L 21.875 12 C 21.40625 9.71875 19.414063 8 17 8 Z M 12 26 C 15.335938 26 18 28.664063 18 32 C 18 35.335938 15.335938 38 12 38 C 8.664063 38 6 35.335938 6 32 C 6 28.664063 8.664063 26 12 26 Z M 36 26 C 39.335938 26 42 28.664063 42 32 C 42 35.335938 39.335938 38 36 38 C 32.664063 38 30 35.335938 30 32 C 30 28.664063 32.664063 26 36 26 Z M 24 28 C 25.109375 28 26 28.890625 26 30 C 26 31.109375 25.109375 32 24 32 C 22.890625 32 22 31.109375 22 30 C 22 28.890625 22.890625 28 24 28 Z "/>
</g>
</svg>
