<?xml version="1.0" encoding="UTF-8"?>
<svg xmlns="http://www.w3.org/2000/svg" xmlns:xlink="http://www.w3.org/1999/xlink" width="528pt" height="528pt" viewBox="0 0 528 528" version="1.1">
<g id="surface1">
<path style=" stroke:none;fill-rule:nonzero;fill:#FFC107;fill-opacity:1;" d="M 479.722656 220.914063 L 462 220.914063 L 462 220 L 264 220 L 264 308 L 388.332031 308 C 370.195313 359.226563 321.453125 396 264 396 C 191.101563 396 132 336.898438 132 264 C 132 191.101563 191.101563 132 264 132 C 297.648438 132 328.261719 144.695313 351.570313 165.429688 L 413.796875 103.203125 C 374.507813 66.582031 321.949219 44 264 44 C 142.503906 44 44 142.503906 44 264 C 44 385.496094 142.503906 484 264 484 C 385.496094 484 484 385.496094 484 264 C 484 249.25 482.480469 234.851563 479.722656 220.914063 Z "/>
<path style=" stroke:none;fill-rule:nonzero;fill:#FF3D00;fill-opacity:1;" d="M 69.367188 161.601563 L 141.648438 214.609375 C 161.203125 166.1875 208.570313 132 264 132 C 297.648438 132 328.261719 144.695313 351.570313 165.429688 L 413.796875 103.203125 C 374.507813 66.582031 321.949219 44 264 44 C 179.496094 44 106.214844 91.707031 69.367188 161.601563 Z "/>
<path style=" stroke:none;fill-rule:nonzero;fill:#4CAF50;fill-opacity:1;" d="M 264 484 C 320.824219 484 372.460938 462.253906 411.5 426.886719 L 343.410156 369.269531 C 321.320313 386 293.863281 396 264 396 C 206.777344 396 158.191406 359.511719 139.886719 308.59375 L 68.144531 363.867188 C 104.554688 435.117188 178.496094 484 264 484 Z "/>
<path style=" stroke:none;fill-rule:nonzero;fill:#1976D2;fill-opacity:1;" d="M 479.722656 220.914063 L 462 220.914063 L 462 220 L 264 220 L 264 308 L 388.332031 308 C 379.621094 332.605469 363.792969 353.824219 343.375 369.28125 C 343.386719 369.269531 343.398438 369.269531 343.410156 369.257813 L 411.5 426.878906 C 406.679688 431.253906 484 374 484 264 C 484 249.25 482.480469 234.851563 479.722656 220.914063 Z "/>
</g>
</svg>
