<?xml version="1.0" encoding="UTF-8"?>
<svg xmlns="http://www.w3.org/2000/svg" xmlns:xlink="http://www.w3.org/1999/xlink" width="50pt" height="50pt" viewBox="0 0 50 50" version="1.1">
<g id="surface1">
<path style=" stroke:none;fill-rule:nonzero;fill:#FFFFFF;fill-opacity:1;" d="M 25 2 C 12.308594 2 2 12.308594 2 25 C 2 37.691406 12.308594 48 25 48 C 37.691406 48 48 37.691406 48 25 C 48 12.308594 37.691406 2 25 2 Z M 24 4.117188 L 24 12.980469 L 16.84375 12.980469 C 17.222656 11.863281 17.648438 10.828125 18.117188 9.890625 C 19.761719 6.597656 21.847656 4.59375 24 4.117188 Z M 26 4.117188 C 28.152344 4.59375 30.238281 6.597656 31.882813 9.890625 C 32.351563 10.828125 32.777344 11.863281 33.15625 12.980469 L 26 12.980469 Z M 19.183594 4.820313 C 18.105469 5.953125 17.144531 7.367188 16.328125 8.996094 C 15.722656 10.203125 15.203125 11.546875 14.75 12.980469 L 7.789063 12.980469 C 10.507813 9.089844 14.503906 6.164063 19.183594 4.820313 Z M 30.816406 4.820313 C 35.496094 6.164063 39.492188 9.089844 42.210938 12.980469 L 35.25 12.980469 C 34.796875 11.546875 34.277344 10.203125 33.671875 8.996094 C 32.855469 7.367188 31.894531 5.953125 30.816406 4.820313 Z M 6.515625 15.019531 L 14.171875 15.019531 C 13.496094 17.761719 13.101563 20.796875 13.03125 24 L 4.03125 24 C 4.183594 20.761719 5.058594 17.710938 6.515625 15.019531 Z M 16.238281 15.019531 L 24 15.019531 L 24 24 L 15.03125 24 C 15.109375 20.761719 15.53125 17.710938 16.238281 15.019531 Z M 26 15.019531 L 33.761719 15.019531 C 34.46875 17.710938 34.890625 20.761719 34.96875 24 L 26 24 Z M 35.828125 15.019531 L 43.484375 15.019531 C 44.941406 17.710938 45.816406 20.761719 45.96875 24 L 36.96875 24 C 36.898438 20.796875 36.503906 17.761719 35.828125 15.019531 Z M 4.039063 26 L 13.027344 26 C 13.09375 29.207031 13.496094 32.238281 14.171875 34.980469 L 6.515625 34.980469 C 5.0625 32.289063 4.191406 29.238281 4.039063 26 Z M 15.027344 26 L 24 26 L 24 34.980469 L 16.238281 34.980469 C 15.53125 32.289063 15.101563 29.238281 15.027344 26 Z M 26 26 L 34.972656 26 C 34.898438 29.238281 34.46875 32.289063 33.761719 34.980469 L 26 34.980469 Z M 36.972656 26 L 45.957031 26 C 45.808594 29.238281 44.9375 32.289063 43.484375 34.980469 L 35.828125 34.980469 C 36.503906 32.238281 36.90625 29.207031 36.972656 26 Z M 7.796875 37.019531 L 14.75 37.019531 C 15.203125 38.453125 15.722656 39.796875 16.328125 41.003906 C 17.144531 42.632813 18.105469 44.046875 19.183594 45.179688 C 14.507813 43.835938 10.515625 40.90625 7.796875 37.019531 Z M 16.84375 37.019531 L 24 37.019531 L 24 45.882813 C 21.847656 45.40625 19.761719 43.402344 18.117188 40.109375 C 17.648438 39.171875 17.222656 38.136719 16.84375 37.019531 Z M 26 37.019531 L 33.15625 37.019531 C 32.777344 38.136719 32.351563 39.171875 31.882813 40.109375 C 30.238281 43.402344 28.152344 45.40625 26 45.882813 Z M 35.25 37.019531 L 42.203125 37.019531 C 39.484375 40.90625 35.492188 43.835938 30.816406 45.179688 C 31.894531 44.046875 32.855469 42.632813 33.671875 41.003906 C 34.277344 39.796875 34.796875 38.453125 35.25 37.019531 Z "/>
</g>
</svg>
