<?xml version="1.0" encoding="UTF-8"?>
<svg xmlns="http://www.w3.org/2000/svg" xmlns:xlink="http://www.w3.org/1999/xlink" width="100pt" height="100pt" viewBox="0 0 100 100" version="1.1">
<g id="surface1">
<path style=" stroke:none;fill-rule:nonzero;fill:#20BED7;fill-opacity:1;" d="M 49.96875 3.96875 C 48.867188 3.992188 47.984375 4.898438 48 6 L 48 50 C 47.992188 50.71875 48.367188 51.390625 48.992188 51.757813 C 49.617188 52.117188 50.382813 52.117188 51.007813 51.757813 C 51.632813 51.390625 52.007813 50.71875 52 50 L 52 6 C 52.007813 5.460938 51.796875 4.9375 51.414063 4.554688 C 51.03125 4.171875 50.507813 3.960938 49.96875 3.96875 Z M 36.09375 6.28125 C 35.84375 6.273438 35.59375 6.3125 35.367188 6.390625 C 17.132813 12.507813 4 29.734375 4 50 C 4 75.382813 24.617188 96 50 96 C 75.382813 96 96 75.382813 96 50 C 96 29.734375 82.867188 12.507813 64.632813 6.390625 C 63.585938 6.039063 62.453125 6.601563 62.101563 7.648438 C 61.75 8.695313 62.3125 9.828125 63.367188 10.1875 C 80 15.765625 92 31.460938 92 50 C 92 73.21875 73.21875 92 50 92 C 26.78125 92 8 73.21875 8 50 C 8 31.460938 20 15.765625 36.632813 10.1875 C 37.5625 9.882813 38.140625 8.96875 38 8 C 37.867188 7.039063 37.0625 6.3125 36.09375 6.28125 Z "/>
</g>
</svg>
