<?xml version="1.0" encoding="UTF-8"?>
<svg xmlns="http://www.w3.org/2000/svg" xmlns:xlink="http://www.w3.org/1999/xlink" width="96pt" height="96pt" viewBox="0 0 96 96" version="1.1">
<g id="surface1">
<path style=" stroke:none;fill-rule:nonzero;fill:#FF9800;fill-opacity:1;" d="M 92 48 C 92 63.464844 79.464844 76 64 76 C 48.535156 76 36 63.464844 36 48 C 36 32.535156 48.535156 20 64 20 C 79.464844 20 92 32.535156 92 48 Z "/>
<path style=" stroke:none;fill-rule:nonzero;fill:#D50000;fill-opacity:1;" d="M 60 48 C 60 63.464844 47.464844 76 32 76 C 16.535156 76 4 63.464844 4 48 C 4 32.535156 16.535156 20 32 20 C 47.464844 20 60 32.535156 60 48 Z "/>
<path style=" stroke:none;fill-rule:nonzero;fill:#FF3D00;fill-opacity:1;" d="M 36 48 C 36 57.511719 40.753906 65.898438 48 70.960938 C 55.246094 65.898438 60 57.511719 60 48 C 60 38.488281 55.246094 30.101563 48 25.039063 C 40.753906 30.101563 36 38.488281 36 48 Z "/>
</g>
</svg>
