<?xml version="1.0" encoding="UTF-8"?>
<svg xmlns="http://www.w3.org/2000/svg" xmlns:xlink="http://www.w3.org/1999/xlink" width="96pt" height="96pt" viewBox="0 0 96 96" version="1.1">
<g id="surface1">
<path style=" stroke:none;fill-rule:nonzero;fill:#1565C0;fill-opacity:1;" d="M 37.398438 27.535156 L 37.410156 27.539063 C 37.617188 26.652344 38.375 26 39.320313 26 L 66.265625 26 C 66.296875 26 66.332031 25.984375 66.367188 25.988281 C 65.792969 16.429688 57.773438 12 50.699219 12 L 23.757813 12 C 22.808594 12 22.050781 12.671875 21.847656 13.554688 L 21.835938 13.550781 L 10.058594 67.625 L 10.085938 67.628906 C 10.054688 67.757813 10.007813 67.878906 10.007813 68.015625 C 10.007813 69.121094 10.898438 69.996094 12.007813 69.996094 L 28.148438 69.996094 Z "/>
<path style=" stroke:none;fill-rule:nonzero;fill:#039BE5;fill-opacity:1;" d="M 66.367188 25.988281 C 66.472656 27.738281 66.355469 29.644531 65.90625 31.753906 C 63.347656 43.742188 54.085938 49.980469 42.636719 49.980469 C 42.636719 49.980469 35.699219 49.980469 34.011719 49.980469 C 32.96875 49.980469 32.476563 50.59375 32.253906 51.0625 L 28.773438 67.160156 L 28.160156 70.019531 L 28.148438 70.019531 L 25.625 81.609375 L 25.648438 81.613281 C 25.621094 81.738281 25.570313 81.863281 25.570313 82 C 25.570313 83.105469 26.464844 84 27.570313 84 L 42.238281 84 L 42.265625 83.980469 C 43.207031 83.964844 43.957031 83.292969 44.152344 82.402344 L 44.191406 82.375 L 47.8125 65.542969 C 47.8125 65.542969 48.066406 63.9375 49.753906 63.9375 C 51.441406 63.9375 58.109375 63.9375 58.109375 63.9375 C 69.554688 63.9375 78.910156 57.722656 81.476563 45.730469 C 84.359375 32.210938 74.714844 26.039063 66.367188 25.988281 Z "/>
<path style=" stroke:none;fill-rule:nonzero;fill:#283593;fill-opacity:1;" d="M 39.320313 26 C 38.371094 26 37.617188 26.652344 37.410156 27.539063 L 37.398438 27.535156 L 32.25 51.0625 C 32.476563 50.597656 32.96875 49.984375 34.011719 49.984375 C 35.699219 49.984375 42.480469 49.984375 42.480469 49.984375 C 53.925781 49.984375 63.34375 43.742188 65.90625 31.753906 C 66.355469 29.648438 66.46875 27.742188 66.363281 25.988281 C 66.332031 25.984375 66.296875 26 66.265625 26 Z "/>
</g>
</svg>
