<?xml version="1.0" encoding="UTF-8"?>
<svg xmlns="http://www.w3.org/2000/svg" xmlns:xlink="http://www.w3.org/1999/xlink" width="52pt" height="52pt" viewBox="0 0 52 52" version="1.1">
<g id="surface1">
<path style=" stroke:none;fill-rule:nonzero;fill:#FFFFFF;fill-opacity:1;" d="M 39.0625 0.1875 L 25.75 15.5625 L 36.3125 26.1875 L 51.8125 13.0625 Z M 24.75 18.8125 C 20.539063 23.023438 15.796875 24.0625 7.6875 24.0625 C 6.210938 31.4375 1.929688 44.5 0 50.1875 L 13.375 36.8125 C 13.296875 36.546875 13.1875 36.289063 13.1875 36 C 13.1875 34.460938 14.460938 33.1875 16 33.1875 C 17.539063 33.1875 18.8125 34.460938 18.8125 36 C 18.8125 37.539063 17.539063 38.8125 16 38.8125 C 15.710938 38.8125 15.453125 38.703125 15.1875 38.625 L 1.8125 52 C 7.5 50.070313 20.5625 45.789063 27.9375 44.3125 C 27.9375 36.203125 28.976563 31.460938 33.1875 27.25 Z "/>
</g>
</svg>
