<?xml version="1.0" encoding="UTF-8"?>
<svg xmlns="http://www.w3.org/2000/svg" xmlns:xlink="http://www.w3.org/1999/xlink" width="96pt" height="96pt" viewBox="0 0 96 96" version="1.1">
<g id="surface1">
<path style=" stroke:none;fill-rule:nonzero;fill:#1565C0;fill-opacity:1;" d="M 90 70 C 90 74.417969 86.417969 78 82 78 L 14 78 C 9.582031 78 6 74.417969 6 70 L 6 26 C 6 21.582031 9.582031 18 14 18 L 82 18 C 86.417969 18 90 21.582031 90 26 Z "/>
<path style=" stroke:none;fill-rule:nonzero;fill:#FFFFFF;fill-opacity:1;" d="M 30.371094 38 L 25.121094 53.664063 C 25.121094 53.664063 23.785156 47.039063 23.652344 46.207031 C 20.664063 39.382813 16.253906 39.765625 16.253906 39.765625 L 21.453125 60 L 21.453125 59.996094 L 27.773438 59.996094 L 36.515625 38 Z "/>
<path style=" stroke:none;fill-rule:nonzero;fill:#FFFFFF;fill-opacity:1;" d="M 35.378906 60 L 41.121094 60 L 44.59375 38 L 38.777344 38 Z "/>
<path style=" stroke:none;fill-rule:nonzero;fill:#FFFFFF;fill-opacity:1;" d="M 76.015625 38 L 69.972656 38 L 60.554688 60 L 66.257813 60 L 67.433594 56.859375 L 74.625 56.859375 L 75.238281 60 L 80.464844 60 Z M 69.027344 52.65625 L 72.152344 44.34375 L 73.789063 52.65625 Z "/>
<path style=" stroke:none;fill-rule:nonzero;fill:#FFFFFF;fill-opacity:1;" d="M 52.738281 44.410156 C 52.738281 43.199219 53.734375 42.296875 56.589844 42.296875 C 58.445313 42.296875 60.570313 43.644531 60.570313 43.644531 L 61.503906 39.027344 C 61.503906 39.027344 58.789063 37.996094 56.121094 37.996094 C 50.085938 37.996094 46.96875 40.886719 46.96875 44.542969 C 46.96875 51.152344 54.929688 50.246094 54.929688 53.644531 C 54.929688 54.226563 54.464844 55.570313 51.152344 55.570313 C 47.828125 55.570313 45.632813 54.355469 45.632813 54.355469 L 44.644531 58.785156 C 44.644531 58.785156 46.769531 59.996094 50.878906 59.996094 C 54.996094 59.996094 60.707031 56.917969 60.707031 52.492188 C 60.707031 47.171875 52.738281 46.789063 52.738281 44.410156 Z "/>
<path style=" stroke:none;fill-rule:nonzero;fill:#FFC107;fill-opacity:1;" d="M 24.425781 49.890625 L 22.492188 40.394531 C 22.492188 40.394531 21.617188 38.335938 19.347656 38.335938 C 17.074219 38.335938 10.464844 38.335938 10.464844 38.335938 C 10.464844 38.335938 21.789063 41.679688 24.425781 49.890625 Z "/>
</g>
</svg>
